<?xml version="1.0" encoding="utf-8"?>
<!-- Generator: Adobe Illustrator 15.1.0, SVG Export Plug-In . SVG Version: 6.00 Build 0)  -->
<!DOCTYPE svg PUBLIC "-//W3C//DTD SVG 1.1//EN" "http://www.w3.org/Graphics/SVG/1.1/DTD/svg11.dtd">
<svg version="1.1" id="Layer_1" xmlns="http://www.w3.org/2000/svg" xmlns:xlink="http://www.w3.org/1999/xlink" x="0px" y="0px"
	 width="612px" height="792px" viewBox="0 0 612 792" enable-background="new 0 0 612 792" xml:space="preserve">
<path fill-rule="evenodd" clip-rule="evenodd" stroke="#000000" stroke-width="3" stroke-linecap="round" stroke-linejoin="round" stroke-miterlimit="22.9256" d="
	M314.656,391.516c-17.204,3.43-27.036,11.836-34.614,23.341c-7.578,11.503-12.903,26.104-20.685,34.732
	c-7.783,8.628-18.024,11.283-26.421,10.62c-8.397-0.665-14.952-4.646-16.999-0.002c-2.048,4.646,0.409,17.921,7.987,26.328
	c7.578,8.406,20.277,11.945,31.916,10.948c11.638-0.999,22.218-6.533,26.314-4.321c3.209,1.733,2.438,8.228,4.287,15.099
	c-1.774,7.729-3.744,15.513-6.566,20.526c-4.466,7.932-11.063,8.925-20.21,12.829c-9.147,3.905-20.844,10.721-34.678,20.228
	s-29.807,21.704-41.83,28.806c-12.025,7.103-20.101,9.108-26.86,10.838c-6.76,1.729-12.204,3.181-14.404,7.659
	c-2.201,4.478-1.159,11.981-1.571,18.124c-0.414,6.143-2.282,10.925-5.27,16.942c-2.989,6.019-7.097,13.271-5.945,19.653
	s11.887,16.212,15.632,15.49c3.745-0.723,4.823-7.678,7.513-18.271c2.69-10.594,6.996-24.824,14.317-34.377
	c7.321-9.553,17.659-14.427,32.323-20.9c14.664-6.473,33.655-14.545,50.595-21.518s35.323-16.427,45.389-26.735
	c10.066-10.309,12.83-15.34,18.182-24.062c2.62,2.607,21.685,3.732,26.995,0.141c1.915,5.235,2.813,6.634,3.44,13.352
	c0.627,6.719-3.849,14.324-8.969,23.395c-5.12,9.071-10.651,22.124-16.386,38.717c-5.734,16.592-11.674,36.723-17.306,50.218
	c-5.633,13.495-10.958,20.354-15.387,26.134c-4.429,5.78-7.963,10.483-7.219,15.489c0.742,5.006,5.76,10.314,8.858,15.485
	c3.098,5.171,4.275,10.203,5.249,16.95c0.972,6.748,1.741,15.211,6.222,19.554c4.48,4.342,19.873,4.563,22.458,1.548
	c2.586-3.015-0.436-9.266-4.199-19.471c-3.764-10.204-8.269-24.363-7.757-36.753c0.512-12.388,6.041-23.009,14.131-37.72
	c8.09-14.712,18.741-33.516,28.367-50.108c9.627-16.592,18.925-35.482,21.301-50.883s1.706-23.434,0.815-35.044
	c7.671-4.473,9.142-7.496,10.892-13.434c1.907-6.473-0.27-15.679,2.598-15.899c2.867-0.222,8.192,5.973,15.976,9.069
	c7.782,3.098,18.023,3.098,26.011,0.886c7.988-2.213,13.723-6.637,17.614-13.274c3.892-6.637,5.939-15.486,4.711-18.804
	c-1.229-3.319-5.734-1.107-11.265-0.442c-5.53,0.663-12.084-0.222-18.639-3.762c-6.554-3.54-13.107-9.734-19.866-23.118
	c-6.76-13.385-13.723-33.96-29.493-45.021c-1.115-0.782-2.277-1.516-3.476-2.205c2.735-7.067,5.738-16.008,10.291-27.599
	c1.895-4.822,4.057-10.103,6.19-15.491c4.29,2.799,8.532,5.713,12.445,8.649c10.431,7.829,18.523,15.816,27.385,19.675
	c8.86,3.859,18.492,3.59,31.169,0.803c12.677-2.787,28.4-8.092,38.673-9.483c10.272-1.391,15.094,1.133,20.512,4.525
	c5.419,3.392,11.432,7.653,17.162,6.762c5.729-0.89,11.174-6.93,10.686-12.622c-0.49-5.691-6.914-11.033-12.823-14.493
	c-5.91-3.458-11.308-5.034-19.69-4.376c-8.384,0.658-19.755,3.549-32.196,5.727c-12.44,2.178-25.952,3.643-36.188,2.399
	c-10.236-1.242-17.199-5.192-27.412-13.852c-6.225-5.278-13.656-12.306-20.896-18.943c0.176-0.659,0.344-1.309,0.501-1.95
	c1.401-0.386,2.872-0.8,4.417-1.231c10.261-2.863,23.739-6.484,35.623-8.195c11.884-1.71,22.172-1.512,30.708-5.19
	c8.535-3.678,15.319-11.236,22.888-23.124c7.568-11.886,15.925-28.105,22.543-37.046c6.617-8.94,11.499-10.605,17.294-12.031
	l0.162-0.04c1.275,9.035,2.513,17.159,3.641,23.685c4.965,28.729,7.802,26.559,11.111,26.048c3.311-0.51,7.094,0.638,4.434-28.283
	c-0.717-7.8-1.903-17.789-3.376-28.882c0.055-0.073,0.108-0.146,0.161-0.221c3.628-5.077,4.173-14.044,0.642-18.21
	c-0.969-1.142-2.243-1.922-3.711-2.418c-3.692-25.386-8.176-52.824-11.737-72.163c-0.135-0.731-0.269-1.447-0.4-2.156l39.05,16.473
	l-21.433-44.558L576.5,71.21l-45.856,8.248L505.145,36.5l-6.907,49.656l-45.704,12.921l41.588,22.44l-2.748,50.944l25.328-27.797
	c1.756,18.317,4.75,45.026,7.913,69.986c-4.876,1.83-9.007,4.776-13.776,10.596c-5.668,6.916-12.238,17.892-19.978,29.113
	c-7.74,11.222-16.648,22.69-24.713,29.504c-8.063,6.813-15.282,8.973-32.501,9.189c-15.497,0.194-39.09-1.184-52.786,1.193
	c-0.502-0.276-1.014-0.549-1.534-0.818c-1.684-2.467-3.549-4.981-4.756-7.487c-2.214-4.596-2.214-9.166-0.261-12.328
	c1.952-3.164,5.856-4.921,11.237-5.623c5.379-0.702,12.232-0.348,15.741-0.611c3.509-0.262,3.671-1.142,4.857-5.829
	c1.185-4.688,3.393-13.184,5.742-18.105c2.349-4.923,4.838-6.27,4.781-8.613c-0.058-2.343-2.661-5.682-4.775-8.934
	c-2.116-3.251-3.742-6.415-3.173-10.544c0.569-4.13,3.335-9.228,5.451-15.905c2.114-6.678,3.578-14.938-1.547-23.725
	c-5.125-8.786-16.839-18.101-30.018-22.934c-13.179-4.833-27.822-5.185-40.105-1.67c-0.95,0.272-1.886,0.567-2.808,0.885
	c0.828-2.173,1.318-4.459,1.19-6.874c-0.41-7.743-7.169-16.814-15.771-21.68c-8.603-4.867-19.047-5.532-30.313,0.221
	c-11.265,5.752-23.348,17.918-25.806,30.862c-2.458,12.941,4.71,26.657,12.8,33.847c6.747,5.996,14.134,7.453,21.034,6.36
	c-1.155,4.449-1.927,9.062-2.291,13.748c-1.045,13.432,3.379,26.378,10.294,37.011c4.802,7.383,13.523,16.311,22.168,24.468
	c5.848,5.518,6.02,9.325,4.326,14.724c-0.669,2.132-1.629,4.514-2.386,6.895c-0.29,0.251-0.576,0.494-0.864,0.721
	c-1.359-2.392-3.038-5.198-5.104-8.516c-14.335-23.012-47.235-70.499-75.078-105.124c-27.844-34.626-50.628-56.387-72.791-67.328
	c-22.164-10.942-43.704-11.063-56.722-4.573c-13.019,6.489-17.517,19.591-15.778,36.552c1.738,16.96,9.711,37.779,34.218,61.216
	c24.506,23.437,65.546,49.492,101.184,71.972c22.1,13.941,42.121,26.505,57.539,34.986c-4.26-1.313-9.75-2.786-17.064-4.559
	c-25.054-6.07-71.482-15.649-109.895-19.882c-38.413-4.233-68.81-3.121-91.869,5.386c-23.061,8.508-38.783,24.413-44.108,38.792
	c-5.327,14.379-0.257,27.235,11.799,38.264c12.055,11.028,31.094,20.229,63.808,19.057c32.713-1.172,79.101-12.718,119.291-22.849
	c34.23-8.629,63.961-16.231,79.976-23.049c0.895,6.38,1.834,12.592,2.896,18.561c1.884,10.587,4.153,20.411,5.698,29.188
	C319.494,390.672,317.006,391.047,314.656,391.516z"/>
</svg>
